<mxfile host="app.diagrams.net" modified="2022-12-02T00:46:43.492Z" agent="5.0 (Windows NT 10.0; Win64; x64) AppleWebKit/537.36 (KHTML, like Gecko) Chrome/107.0.0.0 Safari/537.36" version="20.6.0" etag="AKerhOwbxGiC7eXw4Hkh" type="github">
  <diagram id="967z6bfLz3FcuxHJM1GB" name="Página-1">
    <mxGraphModel dx="1099" dy="1923" grid="1" gridSize="10" guides="1" tooltips="1" connect="1" arrows="1" fold="1" page="1" pageScale="1" pageWidth="827" pageHeight="1169" math="0" shadow="0">
      <root>
        <mxCell id="0" />
        <mxCell id="1" parent="0" />
        <mxCell id="DWv_v4u5u0R4V1RVCeQz-21" style="edgeStyle=orthogonalEdgeStyle;rounded=0;orthogonalLoop=1;jettySize=auto;html=1;entryX=0;entryY=0.5;entryDx=0;entryDy=0;entryPerimeter=0;strokeColor=#0B4D6A;" edge="1" parent="1" source="DWv_v4u5u0R4V1RVCeQz-1" target="DWv_v4u5u0R4V1RVCeQz-8">
          <mxGeometry relative="1" as="geometry" />
        </mxCell>
        <mxCell id="DWv_v4u5u0R4V1RVCeQz-29" style="edgeStyle=orthogonalEdgeStyle;rounded=0;orthogonalLoop=1;jettySize=auto;html=1;strokeColor=#0B4D6A;" edge="1" parent="1" source="DWv_v4u5u0R4V1RVCeQz-1" target="DWv_v4u5u0R4V1RVCeQz-8">
          <mxGeometry relative="1" as="geometry" />
        </mxCell>
        <mxCell id="DWv_v4u5u0R4V1RVCeQz-1" value="inicio" style="ellipse;whiteSpace=wrap;html=1;fillColor=#09555B;strokeColor=#BAC8D3;fontColor=#EEEEEE;" vertex="1" parent="1">
          <mxGeometry x="210" y="-370" width="120" height="80" as="geometry" />
        </mxCell>
        <mxCell id="DWv_v4u5u0R4V1RVCeQz-5" value="fim" style="ellipse;whiteSpace=wrap;html=1;fillColor=#09555B;strokeColor=#BAC8D3;fontColor=#EEEEEE;" vertex="1" parent="1">
          <mxGeometry x="930" y="-370" width="120" height="80" as="geometry" />
        </mxCell>
        <mxCell id="DWv_v4u5u0R4V1RVCeQz-28" style="edgeStyle=orthogonalEdgeStyle;rounded=0;orthogonalLoop=1;jettySize=auto;html=1;strokeColor=#0B4D6A;" edge="1" parent="1" source="DWv_v4u5u0R4V1RVCeQz-8" target="DWv_v4u5u0R4V1RVCeQz-24">
          <mxGeometry relative="1" as="geometry" />
        </mxCell>
        <mxCell id="DWv_v4u5u0R4V1RVCeQz-8" value="pergunta um numero" style="verticalLabelPosition=bottom;verticalAlign=top;html=1;shape=card;whiteSpace=wrap;size=20;arcSize=12;fillColor=#09555B;strokeColor=#BAC8D3;fontColor=#EEEEEE;" vertex="1" parent="1">
          <mxGeometry x="370" y="-370" width="156" height="80" as="geometry" />
        </mxCell>
        <mxCell id="DWv_v4u5u0R4V1RVCeQz-27" style="edgeStyle=orthogonalEdgeStyle;rounded=0;orthogonalLoop=1;jettySize=auto;html=1;strokeColor=#0B4D6A;" edge="1" parent="1" source="DWv_v4u5u0R4V1RVCeQz-24" target="DWv_v4u5u0R4V1RVCeQz-25">
          <mxGeometry relative="1" as="geometry" />
        </mxCell>
        <mxCell id="DWv_v4u5u0R4V1RVCeQz-24" value="somar numero + 10" style="rounded=0;whiteSpace=wrap;html=1;strokeColor=#BAC8D3;fontColor=#EEEEEE;fillColor=#09555B;" vertex="1" parent="1">
          <mxGeometry x="590" y="-360" width="120" height="60" as="geometry" />
        </mxCell>
        <mxCell id="DWv_v4u5u0R4V1RVCeQz-26" style="edgeStyle=orthogonalEdgeStyle;rounded=0;orthogonalLoop=1;jettySize=auto;html=1;strokeColor=#0B4D6A;" edge="1" parent="1" source="DWv_v4u5u0R4V1RVCeQz-25" target="DWv_v4u5u0R4V1RVCeQz-5">
          <mxGeometry relative="1" as="geometry" />
        </mxCell>
        <mxCell id="DWv_v4u5u0R4V1RVCeQz-25" value="&lt;span style=&quot;color: rgb(32, 33, 36); font-family: Roboto, arial, sans-serif; font-size: 13px; text-align: left; background-color: rgb(255, 255, 255);&quot;&gt;Você somou [numeroEntrada] mais o numero 10,&lt;br/&gt;o resultado é [numeroCalculado]&lt;/span&gt;" style="shape=document;whiteSpace=wrap;html=1;boundedLbl=1;strokeColor=#BAC8D3;fontColor=#EEEEEE;fillColor=#09555B;" vertex="1" parent="1">
          <mxGeometry x="770" y="-360" width="120" height="80" as="geometry" />
        </mxCell>
      </root>
    </mxGraphModel>
  </diagram>
</mxfile>
